<svg width="155" height="213" viewBox="0 0 155 213" fill="none" xmlns="http://www.w3.org/2000/svg">
<path d="M64.4272 53.5459C45.2468 54.3713 26.2465 63.3322 13.3487 81.0082C7.16695 89.4801 3.34654 98.6401 1.57618 107.942C-3.27005 133.326 2.78996 158.263 23.5027 173.327C23.5027 180.383 34.1755 189.453 43.3778 191.503C36.9681 194.567 54.6105 195.152 57.2812 195.448C57.2812 195.448 145.591 208.16 153.945 195.448C162.298 182.735 118.078 181.609 125.672 163.918C129.535 154.95 119.338 173.92 119.032 167.339C118.583 157.702 110.036 167.339 123.53 161.566C123.53 161.566 107.229 163.976 128.028 156.648C135.31 154.082 137.331 118.865 135.31 107.942C131.241 85.95 123.53 79.0257 123.53 79.0257C111.686 63.1439 90.4104 52.4076 64.4272 53.5459ZM105.876 148.345C91.3209 168.292 63.3422 172.667 43.3777 158.148C23.4132 143.629 19.0167 115.685 33.5608 95.7532C48.1048 75.8211 76.0945 71.4307 96.0589 85.95C116.023 100.469 120.431 128.398 105.876 148.345Z" fill="#0062FF" fill-opacity="0.5"/>
<path d="M64.4272 53.5459C45.2468 54.3713 26.2465 63.3322 13.3487 81.0082C7.16695 89.4801 3.34654 98.6401 1.57618 107.942C-3.27005 133.326 2.78996 158.263 23.5027 173.327C23.5027 180.383 34.1755 189.453 43.3778 191.503C36.9681 194.567 54.6105 195.152 57.2812 195.448C57.2812 195.448 145.591 208.16 153.945 195.448C162.298 182.735 118.078 181.609 125.672 163.918C129.535 154.95 119.338 173.92 119.032 167.339C118.583 157.702 110.036 167.339 123.53 161.566C123.53 161.566 107.229 163.976 128.028 156.648C135.31 154.082 137.331 118.865 135.31 107.942C131.241 85.95 123.53 79.0257 123.53 79.0257C111.686 63.1439 90.4104 52.4076 64.4272 53.5459ZM105.876 148.345C91.3209 168.292 63.3422 172.667 43.3777 158.148C23.4132 143.629 19.0167 115.685 33.5608 95.7532C48.1048 75.8211 76.0945 71.4307 96.0589 85.95C116.023 100.469 120.431 128.398 105.876 148.345Z" fill="url(#paint0_linear_15_95)"/>
<path d="M114.974 44.6226L103.182 60.6359C102.535 61.4914 103.182 60.6768 102.539 61.4912C84.5471 52.9825 63.7569 50.4721 43.258 58.1813C33.4331 61.8762 25.384 67.7296 18.7907 74.5351C18.3872 74.2523 17.8036 73.6802 17.4174 73.3908L1.27575 61.4466L13.0526 45.62L13.0634 45.5962C6.3286 34.4599 5.73725 12.7564 5.73725 12.7564C20.2587 12.1741 33.116 19.0326 33.116 19.0326C43.4882 11.754 58.52 10.4268 70.5602 14.3332C72.0033 12.7041 81.6838 2.22889 94.9112 0C94.9112 0 100.81 23.0261 98.7305 32.6179L114.974 44.6226Z" fill="#B8B6B6"/>
<path d="M109.784 204.108C99.437 210.074 85.7553 213.737 68.641 212.875C12.2702 210.027 9.79462 159.427 9.79462 159.427C11.5285 161.354 21.3019 167.244 23.2887 169.05L44.9219 183.377C60.5578 191.93 75.9795 193.213 87.5458 188.509C96.7552 183.649 101.369 176.771 104.995 171.266C110.129 163.449 113.942 158.583 116.268 155.85C119.321 152.241 124.878 151.611 128.404 154.746C128.439 154.793 128.48 154.799 128.509 154.829C139.547 164.804 133.496 190.443 109.784 204.108Z" fill="#B8B6B6"/>
<path d="M31.4576 105.135C33.0438 105.135 34.5167 105.335 35.8763 105.736C37.2534 106.136 38.4474 106.736 39.4584 107.537C40.4868 108.32 41.2886 109.303 41.8638 110.486C42.4565 111.67 42.7528 113.053 42.7528 114.637V130.82C42.7528 132.178 42.6046 133.378 42.3083 134.423C42.012 135.449 41.6198 136.345 41.1317 137.111C40.6611 137.859 40.1207 138.503 39.5107 139.043C38.9006 139.565 38.2818 139.991 37.6543 140.322C36.1552 141.122 34.4557 141.575 32.5558 141.679H23.8752C22.8816 141.679 22.1147 141.514 21.5743 141.183C21.034 140.835 20.6418 140.383 20.3977 139.826C20.1537 139.252 20.0055 138.608 19.9532 137.894C19.9184 137.181 19.901 136.441 19.901 135.675V111.087C19.901 110.338 19.9184 109.607 19.9532 108.894C20.0055 108.181 20.1537 107.545 20.3977 106.988C20.6418 106.432 21.034 105.988 21.5743 105.657C22.1147 105.309 22.8816 105.135 23.8752 105.135H31.4576ZM27.8494 111.243V135.467H31.2484C31.998 135.432 32.6691 135.258 33.2617 134.945C33.5057 134.823 33.7498 134.657 33.9938 134.449C34.2378 134.24 34.4557 133.996 34.6475 133.718C34.8392 133.422 34.9874 133.074 35.0919 132.674C35.214 132.273 35.275 131.812 35.275 131.29V115.89C35.275 115.315 35.214 114.811 35.0919 114.376C34.9874 113.923 34.8392 113.532 34.6475 113.201C34.4557 112.87 34.2378 112.592 33.9938 112.366C33.7498 112.139 33.5057 111.957 33.2617 111.817C32.6691 111.487 31.998 111.295 31.2484 111.243H27.8494Z" fill="#B8B6B6"/>
<path d="M62.8332 105.135C63.5304 105.135 64.2363 105.161 64.951 105.213C65.6657 105.266 66.3106 105.414 66.8858 105.657C67.461 105.901 67.9317 106.275 68.2977 106.78C68.6638 107.267 68.8468 107.954 68.8468 108.842C68.8468 109.729 68.6638 110.425 68.2977 110.93C67.9317 111.417 67.461 111.783 66.8858 112.026C66.3106 112.27 65.6657 112.418 64.951 112.47C64.2363 112.522 63.5304 112.548 62.8332 112.548H56.6103V119.648H59.9048C60.602 119.648 61.2992 119.674 61.9965 119.727C62.7111 119.761 63.3387 119.901 63.879 120.144C64.4368 120.371 64.89 120.727 65.2386 121.215C65.5872 121.684 65.7615 122.346 65.7615 123.198C65.7615 124.068 65.5872 124.738 65.2386 125.208C64.89 125.678 64.4368 126.035 63.879 126.278C63.3387 126.505 62.7111 126.644 61.9965 126.696C61.2992 126.731 60.602 126.748 59.9048 126.748H56.6103V134.266H62.8332C63.5304 134.266 64.2363 134.292 64.951 134.344C65.6657 134.396 66.3106 134.544 66.8858 134.788C67.461 135.014 67.9317 135.38 68.2977 135.884C68.6638 136.372 68.8468 137.05 68.8468 137.92C68.8468 138.825 68.6551 139.53 68.2716 140.035C67.9055 140.539 67.4349 140.913 66.8597 141.157C66.2845 141.401 65.6395 141.549 64.9249 141.601C64.2102 141.653 63.513 141.679 62.8332 141.679H52.5838C51.6077 141.679 50.8494 141.505 50.3091 141.157C49.7862 140.809 49.4027 140.357 49.1586 139.8C48.9146 139.225 48.7665 138.582 48.7142 137.868C48.6793 137.155 48.6619 136.424 48.6619 135.675V111.139C48.6619 110.391 48.6793 109.66 48.7142 108.946C48.7665 108.233 48.9146 107.598 49.1586 107.041C49.4027 106.466 49.7862 106.005 50.3091 105.657C50.8494 105.309 51.6077 105.135 52.5838 105.135H62.8332Z" fill="#B8B6B6"/>
<path d="M88.6134 105.135C89.3106 105.135 90.0166 105.161 90.7312 105.213C91.4459 105.266 92.0909 105.414 92.6661 105.657C93.2413 105.901 93.7119 106.275 94.078 106.78C94.444 107.267 94.627 107.954 94.627 108.842C94.627 109.729 94.444 110.425 94.078 110.93C93.7119 111.417 93.2413 111.783 92.6661 112.026C92.0909 112.27 91.4459 112.418 90.7312 112.47C90.0166 112.522 89.3106 112.548 88.6134 112.548H82.3906V119.648H85.685C86.3822 119.648 87.0795 119.674 87.7767 119.727C88.4914 119.761 89.1189 119.901 89.6592 120.144C90.217 120.371 90.6702 120.727 91.0189 121.215C91.3675 121.684 91.5418 122.346 91.5418 123.198C91.5418 124.068 91.3675 124.738 91.0189 125.208C90.6702 125.678 90.217 126.035 89.6592 126.278C89.1189 126.505 88.4914 126.644 87.7767 126.696C87.0795 126.731 86.3822 126.748 85.685 126.748H82.3906V134.266H88.6134C89.3106 134.266 90.0166 134.292 90.7312 134.344C91.4459 134.396 92.0909 134.544 92.6661 134.788C93.2413 135.014 93.7119 135.38 94.078 135.884C94.444 136.372 94.627 137.05 94.627 137.92C94.627 138.825 94.4353 139.53 94.0518 140.035C93.6858 140.539 93.2151 140.913 92.6399 141.157C92.0647 141.401 91.4198 141.549 90.7051 141.601C89.9904 141.653 89.2932 141.679 88.6134 141.679H78.3641C77.3879 141.679 76.6297 141.505 76.0893 141.157C75.5664 140.809 75.1829 140.357 74.9389 139.8C74.6949 139.225 74.5467 138.582 74.4944 137.868C74.4595 137.155 74.4421 136.424 74.4421 135.675V111.139C74.4421 110.391 74.4595 109.66 74.4944 108.946C74.5467 108.233 74.6949 107.598 74.9389 107.041C75.1829 106.466 75.5664 106.005 76.0893 105.657C76.6297 105.309 77.3879 105.135 78.3641 105.135H88.6134Z" fill="#B8B6B6"/>
<path d="M108.223 127.27V135.728C108.223 136.476 108.197 137.207 108.145 137.92C108.11 138.634 107.962 139.269 107.7 139.826C107.456 140.383 107.064 140.835 106.524 141.183C105.983 141.514 105.208 141.679 104.197 141.679C103.22 141.679 102.462 141.514 101.922 141.183C101.399 140.835 101.015 140.383 100.771 139.826C100.527 139.269 100.379 138.634 100.327 137.92C100.292 137.207 100.275 136.476 100.275 135.728V111.087C100.275 110.338 100.292 109.607 100.327 108.894C100.379 108.181 100.527 107.545 100.771 106.988C101.015 106.432 101.399 105.988 101.922 105.657C102.462 105.309 103.22 105.135 104.197 105.135H112.825C114.986 105.24 116.921 105.692 118.629 106.493C119.361 106.841 120.067 107.276 120.747 107.798C121.444 108.32 122.063 108.964 122.604 109.729C123.161 110.478 123.606 111.374 123.937 112.418C124.268 113.445 124.434 114.637 124.434 115.994C124.434 117.856 124.137 119.492 123.545 120.901C122.97 122.293 122.124 123.468 121.009 124.425C119.91 125.365 118.56 126.078 116.956 126.566C115.37 127.035 113.574 127.27 111.57 127.27H108.223ZM111.779 121.058C112.651 121.006 113.435 120.797 114.132 120.431C114.428 120.275 114.716 120.075 114.995 119.831C115.274 119.587 115.527 119.292 115.753 118.944C115.98 118.578 116.154 118.152 116.276 117.665C116.416 117.177 116.485 116.62 116.485 115.994C116.485 115.402 116.416 114.889 116.276 114.454C116.154 114.001 115.989 113.619 115.779 113.305C115.57 112.975 115.335 112.696 115.073 112.47C114.812 112.244 114.542 112.052 114.263 111.896C113.601 111.565 112.86 111.365 112.04 111.295H108.223V121.058H111.779Z" fill="#B8B6B6"/>
<defs>
<linearGradient id="paint0_linear_15_95" x1="124.044" y1="72.5568" x2="2.40933" y2="103.535" gradientUnits="userSpaceOnUse">
<stop stop-color="#8F1010"/>
<stop offset="1"/>
</linearGradient>
</defs>
</svg>
